<svg viewBox="0 0 12 12" width="60px" height="60px" xmlns="http://www.w3.org/2000/svg"><path fill-rule="evenodd" d="M 0,0 3,0 3,1 8,1 8,0 11,0 11,9 10,9 10,11 1,11 1,9 0,9z" fill="#EB6847"/><path fill-rule="evenodd" d="M 1,1 2,1 2,2 1,2z" fill="#ffffff"/><path fill-rule="evenodd" d="M 9,1 10,1 10,2 9,2z" fill="#ffffff"/><path fill-rule="evenodd" d="M 3,2 5,2 5,3 3,3z" fill="#ffffff"/><path fill-rule="evenodd" d="M 6,2 8,2 8,3 6,3z" fill="#ffffff"/><path fill-rule="evenodd" d="M 1,3 3,3 3,4 1,4z" fill="#ffffff"/><path fill-rule="evenodd" d="M 5,3 6,3 6,5 5,5z" fill="#ffffff"/><path fill-rule="evenodd" d="M 8,3 10,3 10,4 8,4z" fill="#ffffff"/><path fill-rule="evenodd" d="M 1,5 3,5 3,6 2,6 2,7 3,7 3,8 1,8z" fill="#ffffff"/><path fill-rule="evenodd" d="M 8,5 10,5 10,8 8,8 8,7 9,7 9,6 8,6z" fill="#ffffff"/><path fill-rule="evenodd" d="M 5,6 6,6 6,7 7,7 7,8 4,8 4,7 5,7z" fill="#ffffff"/><path fill-rule="evenodd" d="M 2,9 5,9 5,10 2,10z" fill="#ffffff"/><path fill-rule="evenodd" d="M 6,9 9,9 9,10 6,10z" fill="#ffffff"/></svg>